<?xml version="1.0" encoding="UTF-8"?>
<svg xmlns="http://www.w3.org/2000/svg" xmlns:xlink="http://www.w3.org/1999/xlink" width="234.3pt" height="337.9pt" viewBox="0 0 234.3 337.9" version="1.1">
<defs>
<clipPath id="clip1">
  <path d="M 1 288 L 234.300781 288 L 234.300781 337.898438 L 1 337.898438 Z M 1 288 "/>
</clipPath>
</defs>
<g id="surface1">
<path style="fill:none;stroke-width:51.142;stroke-linecap:round;stroke-linejoin:round;stroke:rgb(10.594177%,9.812927%,9.423828%);stroke-opacity:1;stroke-miterlimit:4;" d="M 1995.703125 1763.882813 C 1739.101563 1934.78125 1402.070313 1959.039063 1140.78125 1855.09375 C 1140.78125 1438.492188 1140.78125 1136.03125 1140.78125 719.429688 C 1419.101563 831.695313 1940.78125 823.6875 2249.492188 719.429688 Z M 1995.703125 1763.882813 " transform="matrix(0.1,0,0,-0.1,0,337.9)"/>
<path style="fill:none;stroke-width:51.142;stroke-linecap:round;stroke-linejoin:round;stroke:rgb(10.594177%,9.812927%,9.423828%);stroke-opacity:1;stroke-miterlimit:4;" d="M 287.1875 1763.882813 C 543.789063 1934.78125 880.820313 1959.039063 1142.109375 1855.09375 C 1142.109375 1438.492188 1142.109375 1136.03125 1142.109375 719.429688 C 863.789063 831.695313 342.109375 823.6875 33.398438 719.429688 Z M 287.1875 1763.882813 " transform="matrix(0.1,0,0,-0.1,0,337.9)"/>
<path style="fill:none;stroke-width:57.534;stroke-linecap:round;stroke-linejoin:round;stroke:rgb(10.594177%,9.812927%,9.423828%);stroke-opacity:1;stroke-miterlimit:4;" d="M 2250.039063 602.203125 C 1971.679688 714.46875 1450.039063 706.460938 1141.445313 602.203125 C 863.242188 714.46875 341.5625 706.460938 32.851563 602.203125 " transform="matrix(0.1,0,0,-0.1,0,337.9)"/>
<path style=" stroke:none;fill-rule:evenodd;fill:rgb(10.594177%,9.812927%,9.423828%);fill-opacity:1;" d="M 64.816406 109.394531 L 121.855469 109.394531 L 121.855469 109.371094 C 148.542969 109.371094 170.308594 131.203125 170.308594 157.972656 C 170.308594 174.320313 162.191406 188.824219 149.789063 197.640625 L 174.804688 247.199219 L 64.816406 247.199219 Z M 64.816406 109.394531 "/>
<path style=" stroke:none;fill-rule:evenodd;fill:rgb(100%,100%,100%);fill-opacity:1;" d="M 114.144531 248.179688 L 121.34375 193.148438 L 128.539063 138.117188 L 99.75 138.117188 L 106.945313 193.148438 Z M 114.144531 248.179688 "/>
<path style=" stroke:none;fill-rule:evenodd;fill:rgb(89.0625%,0%,8.616638%);fill-opacity:1;" d="M 113.449219 101.699219 C 96.34375 101.699219 82.394531 86.621094 82.394531 68.132813 C 82.394531 48.410156 110.625 24.089844 106.644531 22.667969 C 100.929688 20.628906 94.871094 37.964844 90.804688 36.203125 C 87.238281 34.660156 97.402344 -0.0976563 112.277344 0.00390625 C 119.789063 0.0507813 126.84375 13.082031 126.09375 24.25 C 125.703125 30.0625 125.511719 39.28125 123.648438 45.816406 C 119.546875 60.191406 113.808594 72.46875 118.050781 73.0625 C 124.535156 73.972656 128.863281 41.433594 132.667969 41.296875 C 139.023438 41.066406 144.5 63.203125 144.5 68.132813 C 144.5 86.429688 130.550781 101.699219 113.449219 101.699219 Z M 113.449219 101.699219 "/>
<g clip-path="url(#clip1)" clip-rule="nonzero">
<path style=" stroke:none;fill-rule:evenodd;fill:rgb(10.594177%,9.812927%,9.423828%);fill-opacity:1;" d="M 1.558594 336.921875 L 1.558594 288.140625 L 12.886719 288.140625 C 16.457031 288.140625 19.015625 288.269531 20.5625 288.507813 C 22.109375 288.757813 23.429688 289.175781 24.511719 289.78125 C 26.339844 290.792969 27.695313 292.382813 28.59375 294.523438 C 29.492188 296.660156 29.945313 299.355469 29.945313 302.597656 C 29.945313 305.382813 29.492188 307.566406 28.582031 309.171875 C 27.671875 310.761719 26.171875 311.992188 24.078125 312.832031 C 25.660156 313.34375 26.886719 314.277344 27.773438 315.640625 C 28.671875 317.007813 29.230469 318.847656 29.480469 321.15625 C 29.640625 322.578125 29.753906 324.636719 29.84375 327.320313 C 30.027344 331.929688 30.492188 335.125 31.242188 336.921875 L 20.484375 336.921875 C 19.414063 335.316406 18.871094 332.097656 18.847656 327.253906 C 18.847656 324.820313 18.800781 322.921875 18.710938 321.589844 C 18.5625 319.90625 18.128906 318.710938 17.414063 318.03125 C 16.707031 317.335938 15.535156 316.996094 13.921875 316.996094 C 13.808594 316.996094 13.636719 317.007813 13.398438 317.03125 C 13.171875 317.050781 12.976563 317.0625 12.820313 317.0625 L 12.820313 336.921875 Z M 12.714844 296.945313 L 12.683594 308.863281 C 12.886719 308.886719 13.101563 308.910156 13.351563 308.921875 C 13.59375 308.933594 13.910156 308.933594 14.320313 308.933594 C 16.289063 308.933594 17.617188 308.546875 18.300781 307.785156 C 18.972656 307.023438 19.3125 305.40625 19.3125 302.9375 C 19.3125 300.515625 18.960938 298.902344 18.265625 298.09375 C 17.5625 297.285156 16.230469 296.875 14.25 296.875 C 13.855469 296.875 13.535156 296.875 13.296875 296.886719 C 13.070313 296.898438 12.875 296.921875 12.714844 296.945313 Z M 36.453125 288.140625 L 47.984375 288.140625 L 47.984375 336.921875 L 36.453125 336.921875 Z M 55.421875 336.921875 L 55.421875 288.140625 L 66.75 288.140625 L 66.75 326.820313 L 81.613281 326.820313 L 81.613281 336.921875 Z M 85.71875 288.140625 L 97.25 288.140625 L 97.25 336.921875 L 85.71875 336.921875 Z M 104.324219 336.921875 L 104.324219 288.140625 L 115.050781 288.140625 L 120.382813 303.472656 C 120.691406 304.472656 121.042969 305.609375 121.417969 306.886719 C 121.792969 308.160156 122.191406 309.601563 122.613281 311.195313 L 123.148438 311.195313 C 123.046875 309.910156 122.953125 308.558594 122.898438 307.148438 C 122.839844 305.738281 122.816406 304.179688 122.816406 302.472656 L 122.816406 288.140625 L 132.78125 288.140625 L 132.78125 336.921875 L 122.019531 336.921875 L 116.757813 318.632813 C 116.414063 317.472656 116.0625 316.164063 115.6875 314.699219 C 115.3125 313.230469 114.902344 311.523438 114.457031 309.570313 L 113.890625 309.570313 C 114.027344 311.320313 114.117188 313.058594 114.1875 314.800781 C 114.253906 316.527344 114.289063 318.210938 114.289063 319.863281 L 114.289063 336.921875 Z M 151.136719 296.933594 L 151.136719 328.0625 L 152.035156 328.0625 C 153.855469 328.0625 155.09375 327.6875 155.753906 326.925781 C 156.402344 326.171875 156.730469 324.730469 156.730469 322.589844 L 156.730469 302.460938 C 156.730469 300.289063 156.402344 298.820313 155.730469 298.070313 C 155.070313 297.308594 153.808594 296.933594 151.964844 296.933594 Z M 139.742188 336.921875 L 139.742188 288.140625 L 151.308594 288.140625 C 154.878906 288.140625 157.710938 288.507813 159.8125 289.246094 C 161.90625 289.972656 163.613281 291.179688 164.921875 292.839844 C 166.195313 294.488281 167.09375 296.570313 167.625 299.105469 C 168.160156 301.640625 168.421875 306.101563 168.421875 312.503906 C 168.421875 318.917969 168.160156 323.410156 167.625 325.957031 C 167.09375 328.515625 166.195313 330.597656 164.921875 332.222656 C 163.636719 333.839844 161.917969 335.03125 159.769531 335.785156 C 157.605469 336.546875 154.785156 336.921875 151.308594 336.921875 Z M 171.675781 316.164063 L 182.742188 316.164063 L 182.742188 322.328125 C 182.742188 324.617188 182.945313 326.160156 183.34375 326.945313 C 183.742188 327.730469 184.425781 328.128906 185.402344 328.128906 C 186.359375 328.128906 187.019531 327.765625 187.394531 327.050781 C 187.757813 326.320313 187.9375 324.75 187.9375 322.328125 L 187.9375 288.140625 L 199.335938 288.140625 L 199.335938 321.828125 C 199.335938 327.3125 198.207031 331.359375 195.957031 333.976563 C 193.695313 336.578125 190.203125 337.886719 185.472656 337.886719 C 180.738281 337.886719 177.257813 336.589844 175.019531 333.988281 C 172.789063 331.394531 171.675781 327.332031 171.675781 321.828125 Z M 215.757813 321.554688 L 221.488281 321.554688 L 219.519531 304.371094 C 219.386719 303.300781 219.269531 302.222656 219.167969 301.117188 C 219.066406 300.015625 218.988281 298.902344 218.917969 297.777344 L 218.292969 297.742188 C 218.246094 298.71875 218.179688 299.6875 218.089844 300.652344 C 217.996094 301.621094 217.871094 302.859375 217.691406 304.371094 Z M 202.859375 336.921875 L 211.890625 288.140625 L 225.320313 288.140625 L 234.316406 336.921875 L 223.058594 336.921875 L 222.125 330.484375 L 215.085938 330.484375 L 214.117188 336.921875 Z M 202.859375 336.921875 "/>
</g>
<path style=" stroke:none;fill-rule:evenodd;fill:rgb(100%,100%,100%);fill-opacity:1;" d="M 135.675781 106.402344 C 135.675781 120.695313 126.035156 132.28125 114.144531 132.28125 C 102.253906 132.28125 92.613281 120.695313 92.613281 106.402344 Z M 135.675781 106.402344 "/>
</g>
</svg>
